<?xml version="1.0" encoding="utf-8"?>
<!-- Generator: Adobe Illustrator 16.0.0, SVG Export Plug-In . SVG Version: 6.00 Build 0)  -->
<!DOCTYPE svg PUBLIC "-//W3C//DTD SVG 1.1//EN" "http://www.w3.org/Graphics/SVG/1.1/DTD/svg11.dtd">
<svg class="preloader__icon" version="1.1" id="Layer_1" xmlns="http://www.w3.org/2000/svg" xmlns:xlink="http://www.w3.org/1999/xlink" x="0px" y="0px"
	 width="207.871px" height="234.811px" viewBox="0 0 207.871 234.811" enable-background="new 0 0 207.871 234.811"
	 xml:space="preserve">
<g id="Layer_17">
	<path fill="#EFEFF0" d="M199.56,133.06l-1-5l4.5-0.5l-7.5-10.5l-0.5-12l0.5-12l-1-5.5l3-4.5l0.5-20l-27.5-50.5l-35.5-11.5l-61,1
		l-36,10l-27.5,50l0.5,21.5l4.5,7.5l-0.5,26l-6.5,8.5l-0.5,7.5l-6,7.5l-2.06-2l1.06,25.5l6.5,6l8.5,2l1,7l-1,8.5l41.5,31.5l26.5,14
		l38,1.75l6.5-3.75l11-6l17.5-8.5l10-6.5l25-22.5v-8.5l1-7l5.5-1l8-7.5v-22.5L199.56,133.06z M164.64,136.8
		c0,0-7.42,4.67-10.79,13.33l-19.04,10l-12.13-13h-18.14H86.41l-12.13,13l-19.04-10c-3.37-8.67-10.79-13.33-10.79-13.33
		c-11.46-12-8.09-44.67-8.09-44.67H35.9l26.96-8c0,0,37.75,8.67,81.56,0l28.311,8C172.73,92.13,176.1,124.8,164.64,136.8z"/>
</g>
<g id="Layer_8">
	<g>
		<g>
			<path fill="#FFFFFF" d="M8.09,126.719c-0.29,0.471-0.08,0.851,0.47,0.851h23.41c0.55,0,0.76-0.38,0.47-0.851
				c0,0-3.81-6.149-2.1-36.649H15.82c-0.55,0-1,0.45-1,1v24c0,0.55-0.24,1.38-0.53,1.85L8.09,126.719z"/>
			<path fill="none" stroke="#5A5A66" stroke-width="3" stroke-miterlimit="10" d="M8.09,126.719c-0.29,0.471-0.08,0.851,0.47,0.851
				h23.41c0.55,0,0.76-0.38,0.47-0.851c0,0-3.81-6.149-2.1-36.649H15.82c-0.55,0-1,0.45-1,1v24c0,0.55-0.24,1.38-0.53,1.85
				L8.09,126.719z"/>
		</g>
		<g>
			<path fill="#FFFFFF" d="M202.44,126.719c0.29,0.471,0.08,0.851-0.47,0.851h-23.41c-0.551,0-0.76-0.38-0.471-0.851
				c0,0,3.811-6.149,2.101-36.649h14.53c0.55,0,1,0.45,1,1v24c0,0.55,0.24,1.38,0.529,1.85L202.44,126.719z"/>
			<path fill="none" stroke="#5A5A66" stroke-width="3" stroke-miterlimit="10" d="M202.44,126.719
				c0.29,0.471,0.08,0.851-0.47,0.851h-23.41c-0.551,0-0.76-0.38-0.471-0.851c0,0,3.811-6.149,2.101-36.649h14.53c0.55,0,1,0.45,1,1
				v24c0,0.55,0.24,1.38,0.529,1.85L202.44,126.719z"/>
		</g>
		<polygon fill="#FFFFFF" stroke="#5A5A66" stroke-width="3" stroke-miterlimit="10" points="52.12,215.56 52.12,205.85 
			33.29,183.83 23.56,178.56 17.05,178.56 17.05,187.56 41.23,210.31 		"/>
		<polygon fill="#FFFFFF" stroke="#5A5A66" stroke-width="3" stroke-miterlimit="10" points="157.121,215.56 157.121,205.85 
			175.759,183.83 185.371,178.56 191.81,178.56 191.81,187.56 167.89,210.31 		"/>
		<g>
			<path fill="#FFFFFF" d="M30.03,141.49c1.01-0.44,2.46-0.17,3.24,0.62l11.39,11.53c0.77,0.779,2.2,1.85,3.17,2.359l27.47,14.62
				c0.97,0.521,2.17,1.74,2.66,2.73l0.21,0.42c0.49,0.979,0.89,2.689,0.89,3.79v52.5c0,1.1-0.77,1.54-1.72,0.979l-17.56-10.45
				c-0.95-0.56-1.69-1.92-1.66-3.02l0.38-12c0.03-1.101-0.51-2.69-1.21-3.54l-20.46-24.91c-0.7-0.85-2.1-1.88-3.13-2.29l-8.79-3.51
				c-1.02-0.41-1.86-1.641-1.86-2.74v-22c0-1.1,0.82-2.36,1.83-2.81L30.03,141.49z"/>
			<path fill="none" stroke="#5A5A66" stroke-width="3" stroke-miterlimit="10" d="M30.03,141.49c1.01-0.44,2.46-0.17,3.24,0.62
				l11.39,11.53c0.77,0.779,2.2,1.85,3.17,2.359l27.47,14.62c0.97,0.521,2.17,1.74,2.66,2.73l0.21,0.42
				c0.49,0.979,0.89,2.689,0.89,3.79v52.5c0,1.1-0.77,1.54-1.72,0.979l-17.56-10.45c-0.95-0.56-1.69-1.92-1.66-3.02l0.38-12
				c0.03-1.101-0.51-2.69-1.21-3.54l-20.46-24.91c-0.7-0.85-2.1-1.88-3.13-2.29l-8.79-3.51c-1.02-0.41-1.86-1.641-1.86-2.74v-22
				c0-1.1,0.82-2.36,1.83-2.81L30.03,141.49z"/>
		</g>
		<g>
			<path fill="#FFFFFF" d="M178.089,141.49c-1.01-0.44-2.459-0.17-3.239,0.62l-11.38,11.53c-0.77,0.779-2.2,1.85-3.17,2.359
				l-27.471,14.62c-0.97,0.521-2.17,1.74-2.66,2.73l-0.209,0.42c-0.49,0.979-0.891,2.689-0.891,3.79v52.5
				c0,1.1,0.77,1.54,1.721,0.979l17.56-10.45c0.95-0.56,1.69-1.92,1.659-3.02l-0.379-12c-0.03-1.101,0.51-2.69,1.209-3.54
				l20.461-24.91c0.699-0.85,2.109-1.88,3.13-2.29l8.79-3.51c1.02-0.41,1.859-1.641,1.859-2.74v-22c0-1.1-0.82-2.36-1.83-2.81
				L178.089,141.49z"/>
			<path fill="none" stroke="#5A5A66" stroke-width="3" stroke-miterlimit="10" d="M178.089,141.49
				c-1.01-0.44-2.459-0.17-3.239,0.62l-11.38,11.53c-0.77,0.779-2.2,1.85-3.17,2.359l-27.471,14.62c-0.97,0.521-2.17,1.74-2.66,2.73
				l-0.209,0.42c-0.49,0.979-0.891,2.689-0.891,3.79v52.5c0,1.1,0.77,1.54,1.721,0.979l17.56-10.45c0.95-0.56,1.69-1.92,1.659-3.02
				l-0.379-12c-0.03-1.101,0.51-2.69,1.209-3.54l20.461-24.91c0.699-0.85,2.109-1.88,3.13-2.29l8.79-3.51
				c1.02-0.41,1.859-1.641,1.859-2.74v-22c0-1.1-0.82-2.36-1.83-2.81L178.089,141.49z"/>
		</g>
		<g>
			<path fill="#FFFFFF" d="M74.56,1.06L70.71,69.88c-0.03,0.551-0.51,1-1.06,1h-23.4c-0.55,0-1.45-0.02-2-0.05
				c0,0-20.99-0.97-24.89,10.67c0,0-6.35,10.12-8.79,0V62.77c0-0.551,0.22-1.4,0.48-1.88l26.4-48.33c0.26-0.48,0.9-1.04,1.41-1.24
				C38.85,11.33,68.21,0.05,74.56,1.06z"/>
			<path fill="none" stroke="#5A5A66" stroke-width="3" stroke-miterlimit="10" d="M74.56,1.06L70.71,69.88
				c-0.03,0.551-0.51,1-1.06,1h-23.4c-0.55,0-1.45-0.02-2-0.05c0,0-20.99-0.97-24.89,10.67c0,0-6.35,10.12-8.79,0V62.77
				c0-0.551,0.22-1.4,0.48-1.88l26.4-48.33c0.26-0.48,0.9-1.04,1.41-1.24C38.85,11.33,68.21,0.05,74.56,1.06z"/>
		</g>
		<g>
			<path fill="#FFFFFF" d="M133.56,1.63l3.85,68.82c0.03,0.55,0.51,1,1.061,1h23.4c0.549,0,1.449-0.02,2-0.05
				c0,0,20.989-0.971,24.889,10.67c0,0,6.351,10.12,8.791,0V63.34c0-0.55-0.221-1.399-0.48-1.88l-26.4-48.33
				c-0.26-0.479-0.899-1.04-1.41-1.239C169.27,11.9,139.91,0.62,133.56,1.63z"/>
			<path fill="none" stroke="#5A5A66" stroke-width="3" stroke-miterlimit="10" d="M133.56,1.63l3.85,68.82
				c0.03,0.55,0.51,1,1.061,1h23.4c0.549,0,1.449-0.02,2-0.05c0,0,20.989-0.971,24.889,10.67c0,0,6.351,10.12,8.791,0V63.34
				c0-0.55-0.221-1.399-0.48-1.88l-26.4-48.33c-0.26-0.479-0.899-1.04-1.41-1.239C169.27,11.9,139.91,0.62,133.56,1.63z"/>
		</g>
		<g>
			<path fill="#5A5A66" d="M38.66,13.56c0.01-1.101-0.42-1.21-0.96-0.25l-9.67,17.5c-0.53,0.96-0.97,2.649-0.97,3.75v12
				c0,1.1,0.51,1.26,1.14,0.359l9.21-13.22c0.63-0.9,1.15-2.54,1.15-3.64L38.66,13.56z"/>
		</g>
		<g>
			<path fill="#5A5A66" d="M168.96,13.12c-0.01-1.1,0.42-1.21,0.959-0.25l9.67,17.5c0.531,0.96,0.971,2.65,0.971,3.75v12
				c0,1.1-0.51,1.26-1.141,0.36L170.21,33.26c-0.631-0.899-1.15-2.54-1.15-3.64L168.96,13.12z"/>
		</g>
		<g>
			<path fill="#FFFFFF" d="M103.56,163.25c0.55,0,1.449,0,2,0h25.49c0.55,0,0.689-0.33,0.31-0.72l-8.62-9.05
				c-0.38-0.4-1.14-0.721-1.689-0.721h-15.49c-0.551,0-1.45,0-2,0H88.08c-0.55,0-1.31,0.33-1.69,0.721l-8.62,9.05
				c-0.38,0.399-0.24,0.72,0.31,0.72H103.56z"/>
			<path fill="none" stroke="#5A5A66" stroke-width="3" stroke-miterlimit="10" d="M103.56,163.25c0.55,0,1.449,0,2,0h25.49
				c0.55,0,0.689-0.33,0.31-0.72l-8.62-9.05c-0.38-0.4-1.14-0.721-1.689-0.721h-15.49c-0.551,0-1.45,0-2,0H88.08
				c-0.55,0-1.31,0.33-1.69,0.721l-8.62,9.05c-0.38,0.399-0.24,0.72,0.31,0.72H103.56z"/>
		</g>
		<g>
			<path fill="#FFFFFF" d="M77.56,80.56c-0.55,0-0.98-0.45-0.95-1l3.9-76c0.03-0.551,0.5-1,1.05-1h44.02c0.551,0,1.03,0.449,1.061,1
				l4.85,76c0.03,0.55-0.39,1-0.939,1H77.56z"/>
			<path fill="none" stroke="#5A5A66" stroke-width="3" stroke-miterlimit="10" d="M77.56,80.56c-0.55,0-0.98-0.45-0.95-1l3.9-76
				c0.03-0.551,0.5-1,1.05-1h44.02c0.551,0,1.03,0.449,1.061,1l4.85,76c0.03,0.55-0.39,1-0.939,1H77.56z"/>
		</g>
		<path fill="#FFFFFF" stroke="#5A5A66" stroke-width="3" stroke-miterlimit="10" d="M126.56,72c0,2.03-2.311,3.681-5.15,3.681
			H86.57c-2.85,0-5.15-1.65-5.15-3.681l0,0c0-2.03,2.31-3.68,5.15-3.68h34.84C124.25,68.32,126.56,69.969,126.56,72L126.56,72z"/>
		<g>
			<path fill="#FFFFFF" d="M31.04,133.63c0.45-0.31,0.38-0.56-0.17-0.56H9.32c-0.55,0-1.31,0.32-1.7,0.72l-5.93,6.12
				c-0.38,0.4-0.7,1.17-0.7,1.72v20.44c0,0.55,0.31,1.32,0.7,1.72l7.11,7.34c0.38,0.4,1.15,0.721,1.7,0.721h4.93c0.55,0,1-0.45,1-1
				v-26.28c0-0.55,0.37-1.25,0.83-1.561L31.04,133.63z"/>
			<path fill="none" stroke="#5A5A66" stroke-width="3" stroke-miterlimit="10" d="M31.04,133.63c0.45-0.31,0.38-0.56-0.17-0.56
				H9.32c-0.55,0-1.31,0.32-1.7,0.72l-5.93,6.12c-0.38,0.4-0.7,1.17-0.7,1.72v20.44c0,0.55,0.31,1.32,0.7,1.72l7.11,7.34
				c0.38,0.4,1.15,0.721,1.7,0.721h4.93c0.55,0,1-0.45,1-1v-26.28c0-0.55,0.37-1.25,0.83-1.561L31.04,133.63z"/>
		</g>
		<g>
			<path fill="#FFFFFF" d="M177.82,133.64c-0.449-0.32-0.369-0.58,0.18-0.58h20.78c0.55,0,1.31,0.33,1.681,0.729l5.72,6.101
				c0.38,0.399,0.68,1.18,0.68,1.729v20.44c0,0.55-0.31,1.33-0.68,1.729l-6.86,7.32c-0.38,0.399-1.13,0.729-1.68,0.729h-4.7
				c-0.55,0-1-0.449-1-1V144.56c0-0.551-0.37-1.261-0.819-1.58L177.82,133.64z"/>
			<path fill="none" stroke="#5A5A66" stroke-width="3" stroke-miterlimit="10" d="M177.82,133.64c-0.449-0.32-0.369-0.58,0.18-0.58
				h20.78c0.55,0,1.31,0.33,1.681,0.729l5.72,6.101c0.38,0.399,0.68,1.18,0.68,1.729v20.44c0,0.55-0.31,1.33-0.68,1.729l-6.86,7.32
				c-0.38,0.399-1.13,0.729-1.68,0.729h-4.7c-0.55,0-1-0.449-1-1V144.56c0-0.551-0.37-1.261-0.819-1.58L177.82,133.64z"/>
		</g>
		<g>
			<path fill="#FFFFFF" d="M103.93,193.9h12.21c0.55,0,1.311-0.32,1.699-0.721l5.021-5.149c0.38-0.39,0.7-0.271,0.7,0.28v44.5
				c0,0.55-0.45,1-1,1h-17.63c-0.55,0-0.94,0-0.87,0s-0.32,0-0.87,0H85.56c-0.55,0-1-0.45-1-1v-44.5c0-0.551,0.31-0.681,0.7-0.28
				l5.02,5.149c0.38,0.391,1.15,0.721,1.7,0.721h12.21"/>
			<path fill="none" stroke="#5A5A66" stroke-width="3" stroke-miterlimit="10" d="M103.93,193.9h12.21
				c0.55,0,1.311-0.32,1.699-0.721l5.021-5.149c0.38-0.39,0.7-0.271,0.7,0.28v44.5c0,0.55-0.45,1-1,1h-17.63c-0.55,0-0.94,0-0.87,0
				s-0.32,0-0.87,0H85.56c-0.55,0-1-0.45-1-1v-44.5c0-0.551,0.31-0.681,0.7-0.28l5.02,5.149c0.38,0.391,1.15,0.721,1.7,0.721h12.21"
				/>
		</g>
		<path fill="#5A5A66" stroke="#5A5A66" stroke-width="2" stroke-miterlimit="10" d="M98.04,205.56c0,1.369-1.11,2.479-2.48,2.479
			l0,0c-1.37,0-2.48-1.11-2.48-2.479l0,0c0-1.37,1.11-2.48,2.48-2.48l0,0C96.93,203.09,98.04,204.19,98.04,205.56L98.04,205.56z"/>
		<path fill="#5A5A66" stroke="#5A5A66" stroke-width="2" stroke-miterlimit="10" d="M115.541,205.56c0,1.369-1.11,2.479-2.48,2.479
			l0,0c-1.37,0-2.48-1.11-2.48-2.479l0,0c0-1.37,1.11-2.48,2.48-2.48l0,0C114.43,203.09,115.541,204.19,115.541,205.56
			L115.541,205.56z"/>
		<path fill="#5A5A66" stroke="#5A5A66" stroke-width="2" stroke-miterlimit="10" d="M98.04,222.56c0,1.369-1.11,2.479-2.48,2.479
			l0,0c-1.37,0-2.48-1.11-2.48-2.479l0,0c0-1.37,1.11-2.48,2.48-2.48l0,0C96.93,220.09,98.04,221.2,98.04,222.56L98.04,222.56z"/>
		<path fill="#5A5A66" stroke="#5A5A66" stroke-width="2" stroke-miterlimit="10" d="M115.541,222.56c0,1.369-1.11,2.479-2.48,2.479
			l0,0c-1.37,0-2.48-1.11-2.48-2.479l0,0c0-1.37,1.11-2.48,2.48-2.48l0,0C114.43,220.09,115.541,221.2,115.541,222.56
			L115.541,222.56z"/>
		<path fill="#5A5A66" stroke="#5A5A66" stroke-width="3" stroke-miterlimit="10" d="M11.04,158.56c0,1.369-1.11,2.479-2.48,2.479
			l0,0c-1.37,0-2.48-1.11-2.48-2.479l0,0c0-1.37,1.11-2.48,2.48-2.48l0,0C9.93,156.09,11.04,157.19,11.04,158.56L11.04,158.56z"/>
		<path fill="#5A5A66" stroke="#5A5A66" stroke-width="3" stroke-miterlimit="10" d="M11.04,146.56c0,1.369-1.11,2.479-2.48,2.479
			l0,0c-1.37,0-2.48-1.11-2.48-2.479l0,0c0-1.37,1.11-2.48,2.48-2.48l0,0C9.93,144.09,11.04,145.19,11.04,146.56L11.04,146.56z"/>
		<path fill="#5A5A66" stroke="#5A5A66" stroke-width="3" stroke-miterlimit="10" d="M201.041,158.56c0,1.369-1.11,2.479-2.48,2.479
			l0,0c-1.37,0-2.48-1.11-2.48-2.479l0,0c0-1.37,1.11-2.48,2.48-2.48l0,0C199.93,156.09,201.041,157.2,201.041,158.56
			L201.041,158.56z"/>
		<path fill="#5A5A66" stroke="#5A5A66" stroke-width="3" stroke-miterlimit="10" d="M201.041,146.56c0,1.369-1.11,2.479-2.48,2.479
			l0,0c-1.37,0-2.48-1.11-2.48-2.479l0,0c0-1.37,1.11-2.48,2.48-2.48l0,0C199.93,144.09,201.041,145.2,201.041,146.56
			L201.041,146.56z"/>
		<polygon fill="#5A5A66" stroke="#5A5A66" stroke-miterlimit="10" points="66.06,187.59 71.06,190.06 71.06,179.06 66.06,179.06 		
			"/>
		<polygon fill="#5A5A66" stroke="#5A5A66" stroke-miterlimit="10" points="141.06,187.59 136.06,190.06 136.06,179.06 
			141.06,179.06 		"/>
		<polyline fill="#FFFFFF" stroke="#5A5A66" stroke-width="3" stroke-miterlimit="10" points="104.44,189.25 114.18,189.25 
			121.44,183.05 121.44,168.75 104.44,168.75 104.69,168.75 87.69,168.75 87.69,183.05 94.94,189.25 104.69,189.25 		"/>
	</g>
</g>
<g id="Layer_2_1_" class="preloader__icon-visor">
	<path fill="none" stroke="#FFFFFF" stroke-miterlimit="10" d="M43.777,95.949l5.284-3.02l5.285,3.02v6.039l-5.285,3.021
		l-5.284-3.021V95.949z M49.095,110.923l5.284,3.021l5.284-3.021v-6.038l-5.284-3.02l-5.284,3.02V110.923z M54.379,101.864
		l5.284,3.021l5.284-3.021v-6.038l-5.284-3.02l-5.284,3.02V101.864z M59.646,111.047l5.284,3.021l5.285-3.021v-6.038l-5.285-3.02
		l-5.284,3.02V111.047z M64.965,119.981l5.284,3.02l5.285-3.02v-6.038l-5.285-3.02l-5.284,3.02V119.981z M70.249,110.923
		l5.285,3.021l5.284-3.021v-6.038l-5.284-3.02l-5.285,3.02V110.923z M43.793,120.105l5.284,3.021l5.284-3.021v-6.038l-5.284-3.02
		l-5.284,3.02V120.105z M49.113,129.04l5.284,3.021l5.285-3.021v-6.039l-5.285-3.019l-5.284,3.019V129.04z M54.396,119.981
		l5.285,3.02l5.284-3.02v-6.038l-5.284-3.02l-5.285,3.02V119.981z M39.949,130.187l3.813,2.179l5.285-3.02v-6.039l-5.285-3.02
		l-5.284,3.02v3.104C38.919,127.707,39.402,128.976,39.949,130.187z M38.544,110.924l-2.391,1.366
		c0.246,2.365,0.271,4.729,0.229,7.097c0.262,0.932,0.525,1.877,0.799,2.835l1.363,0.779l5.284-3.02v-6.038L38.544,110.924z
		 M38.544,110.923l5.284,3.021l5.285-3.021v-6.038l-5.285-3.02l-5.284,3.02V110.923z M63.935,85.155
		c-0.347,0-0.644-0.077-0.897-0.202l-3.392,1.938v6.038l5.284,3.021l5.285-3.021v-6.038l-3.038-1.736H63.935z M64.965,101.864
		l5.284,3.021l5.285-3.021v-6.038l-5.285-3.02l-5.284,3.02V101.864z M78.276,86.368c-1.751-0.224-3.496-0.495-5.248-0.713h-0.833
		l-1.946,1.112v6.038l5.285,3.021l5.284-3.021v-4.65h-0.632C78.986,88.155,78.359,87.292,78.276,86.368z M38.493,91.039v1.891
		l5.284,3.02l5.284-3.02v-4.388C45.619,89.765,42.078,90.674,38.493,91.039z M38.544,92.806l-2.609,1.491v9.096l2.609,1.491
		l5.284-3.021v-6.038L38.544,92.806z M56.944,86.132c-0.602,0.394-1.365,0.343-1.969,0.009c-1.913,0.862-3.87,1.671-5.862,2.381
		v4.282l5.284,3.021l5.285-3.021v-6.038l-1.93-1.103C57.479,85.815,57.206,85.962,56.944,86.132z M75.499,101.988l5.285,3.021
		l5.285-3.021v-6.039l-5.285-3.02l-5.285,3.02V101.988z M80.817,110.923l5.285,3.021l5.284-3.021v-6.038l-5.284-3.02l-5.285,3.02
		V110.923z M86.102,101.864l5.284,3.021l5.283-3.021v-6.038l-5.283-3.02l-5.284,3.02V101.864z M80.817,88.155v4.65l5.285,3.021
		l5.284-3.021v-4.65H80.817z M54.362,138.222l5.284,3.021l5.284-3.021v-6.038l-5.284-3.02l-5.284,3.02V138.222z M59.681,147.158
		l5.284,3.02l5.284-3.02v-6.04l-5.284-3.019l-5.284,3.019V147.158z M64.965,138.098l5.284,3.02l5.285-3.02v-6.038l-5.285-3.02
		l-5.284,3.02V138.098z M59.681,129.04l5.284,3.021l5.284-3.021v-6.039l-5.284-3.019l-5.284,3.019V129.04z M49.046,129.346
		l-5.285,3.02v3.718c1.732,1.85,3.586,3.532,5.299,5.332l5.269-3.011v-6.039L49.046,129.346z M70.215,129.165l5.284,3.02l5.285-3.02
		v-6.039l-5.285-3.02l-5.284,3.02V129.165z M75.534,138.098l5.284,3.02l5.285-3.02v-6.038l-5.285-3.02l-5.284,3.02V138.098z
		 M80.817,129.04l5.285,3.021l5.284-3.021v-6.039l-5.284-3.019l-5.285,3.019V129.04z M75.534,119.981l5.284,3.02l5.285-3.02v-6.038
		l-5.285-3.02l-5.284,3.02V119.981z M86.068,120.105l5.284,3.021l5.284-3.021v-6.038l-5.284-3.02l-5.284,3.02V120.105z
		 M91.386,129.04l5.283,3.021l5.285-3.021v-6.039l-5.285-3.019l-5.283,3.019V129.04z M96.669,119.981l5.285,3.02l5.283-3.02v-6.038
		l-5.283-3.02l-5.285,3.02V119.981z M91.386,110.923l5.283,3.021l5.285-3.021v-6.038l-5.285-3.02l-5.283,3.02V110.923z
		 M86.102,138.098l5.284,3.02l5.283-3.02v-6.038l-5.283-3.02l-5.284,3.02V138.098z M101.955,110.923l5.283,3.021l5.285-3.021v-6.038
		l-5.285-3.02l-5.283,3.02V110.923z M101.919,129.165l5.284,3.02l5.285-3.02v-6.039l-5.285-3.02l-5.284,3.02V129.165z
		 M112.523,129.04l5.283,3.021l5.285-3.021v-6.039l-5.285-3.019l-5.283,3.019V129.04z M107.238,119.981l5.285,3.02l5.283-3.02
		v-6.038l-5.283-3.02l-5.285,3.02V119.981z M96.669,138.098l5.285,3.02l5.283-3.02v-6.038l-5.283-3.02l-5.285,3.02V138.098z
		 M107.238,138.098l5.285,3.02l5.283-3.02v-6.038l-5.283-3.02l-5.285,3.02V138.098z M91.386,88.155v4.65l5.283,3.021l5.285-3.021
		v-4.65H91.386z M96.669,101.864l5.285,3.021l5.283-3.021v-6.038l-5.283-3.02l-5.285,3.02V101.864z M107.238,101.864l5.285,3.021
		l5.283-3.021v-6.038l-5.283-3.02l-5.285,3.02V101.864z M112.523,88.59v4.215l5.283,3.021l5.285-3.021v-5.173
		C119.587,88.107,116.069,88.461,112.523,88.59z M117.806,101.864l5.285,3.021l5.284-3.021v-6.038l-5.284-3.02l-5.285,3.02V101.864z
		 M112.523,110.923l5.283,3.021l5.285-3.021v-6.038l-5.285-3.02l-5.283,3.02V110.923z M117.806,138.098l5.285,3.02l5.284-3.02
		v-6.038l-5.284-3.02l-5.285,3.02V138.098z M117.806,119.981l5.285,3.02l5.284-3.02v-6.038l-5.284-3.02l-5.285,3.02V119.981z
		 M123.091,110.923l5.284,3.021l5.283-3.021v-6.038l-5.283-3.02l-5.284,3.02V110.923z M128.375,119.981l5.283,3.02l5.285-3.02
		v-6.038l-5.285-3.02l-5.283,3.02V119.981z M123.091,129.04l5.284,3.021l5.283-3.021v-6.039l-5.283-3.019l-5.284,3.019V129.04z
		 M123.091,87.632v5.173l5.284,3.021l5.283-3.021v-6.038l-1-0.571C129.47,86.688,126.285,87.199,123.091,87.632z M128.375,101.864
		l5.283,3.021l5.285-3.021v-6.038l-5.285-3.02l-5.283,3.02V101.864z M133.659,110.923l5.285,3.021l5.284-3.021v-6.038l-5.284-3.02
		l-5.285,3.02V110.923z M142.283,85.655h-5.978c-0.312,0.044-0.622,0.087-0.934,0.133l-1.713,0.979v6.038l5.285,3.021l5.284-3.021
		v-6.038L142.283,85.655z M133.447,128.907l5.283,3.021l5.285-3.021v-6.038l-5.285-3.02l-5.283,3.02V128.907z M138.73,137.967
		l5.285,3.02l5.284-3.02v-6.039l-5.284-3.019l-5.285,3.019V137.967z M138.73,119.848l5.285,3.021l5.284-3.021v-6.038l-5.284-3.02
		l-5.285,3.02V119.848z M128.588,137.967l5.284,3.02l5.284-3.02v-6.039l-5.284-3.019l-5.284,3.019V137.967z M139.362,101.864
		l5.284,3.021l5.284-3.021v-6.038l-5.284-3.02l-5.284,3.02V101.864z M144.646,110.923l5.284,3.021l5.284-3.021v-6.038l-5.284-3.02
		l-5.284,3.02V110.923z M147.247,85.281l-2.601,1.486v6.038l5.284,3.021l5.284-3.021v-5.774
		C152.592,86.335,149.936,85.756,147.247,85.281z M144.328,128.923l5.285,3.021l5.285-3.021v-6.038l-5.285-3.02l-5.285,3.02V128.923
		z M144.117,146.907l5.283,3.021l5.285-3.021v-6.038l-5.285-3.02l-5.283,3.02V146.907z M150.675,151.178
		c0.317-0.142,0.648-0.215,0.973-0.229c1.208-1.23,2.423-2.46,3.638-3.697l-0.601-0.344l-5.285,3.019v1.886
		C149.818,151.588,150.241,151.372,150.675,151.178z M149.4,137.848l5.285,3.021l5.283-3.021v-6.038l-5.283-3.02l-5.285,3.02
		V137.848z M150.031,119.864l5.285,3.021l5.283-3.021v-6.038l-5.283-3.02l-5.285,3.02V119.864z M155.316,128.923l5.283,3.021
		l5.285-3.021v-6.038l-5.285-3.02l-5.283,3.02V128.923z M155.316,87.059v5.746l5.283,3.021l5.285-3.021v-2.237
		C162.425,89.177,158.901,88.015,155.316,87.059z M160.716,101.805l5.283,3.021l5.285-3.021v-6.038L166,92.747l-5.283,3.02V101.805z
		 M161.031,119.864l5.285,3.021l5.283-3.021v-6.038l-5.283-3.02l-5.285,3.02V119.864z M172.234,120.228l-0.635-0.363l-5.283,3.02
		v6.038l2.438,1.394C170.384,127.211,171.609,123.88,172.234,120.228z M172.435,102.225l-0.836-0.478l-5.283,3.02v6.038l5.283,3.021
		l0.836-0.478V102.225z M70.534,147.098l5.284,3.02l5.285-3.02v-6.038l-5.285-3.02l-5.284,3.02V147.098z M85.185,147.655h5.51
		l0.974-0.557v-6.038l-5.283-3.02l-5.284,3.02v6.038l2.471,1.412C83.884,148.012,84.417,147.655,85.185,147.655z M101.264,147.655
		l0.974-0.557v-6.038l-5.283-3.02l-5.285,3.02v6.038l0.974,0.557H101.264z M111.833,147.655l0.974-0.557v-6.038l-5.283-3.02
		l-5.285,3.02v6.038l0.974,0.557H111.833z M122.185,147.655c0.065,0,0.122,0.014,0.185,0.019l1.006-0.575v-6.038l-5.284-3.02
		l-5.285,3.02v6.038l0.975,0.557H122.185z M123.588,146.967l5.284,3.02l5.284-3.02v-6.039l-5.284-3.019l-5.284,3.019V146.967z
		 M133.588,146.967l5.284,3.02l5.284-3.02v-6.039l-5.284-3.019l-5.284,3.019V146.967z M133.873,146.909l-5.284,3.019v4.044
		c1.687,1.819,3.449,3.558,5.556,4.859l5.013-2.864v-6.039L133.873,146.909z M70.817,147.041l-5.284,3.02v4.558
		c0.068,0.049,0.146,0.105,0.169,0.121c0.241,0.158,0.485,0.307,0.741,0.439c0.39,0.201,0.662,0.54,0.82,0.93
		c0.141,0.067,0.276,0.145,0.397,0.24c1.683,0.528,3.402,0.971,5.009,1.71l3.431-1.96v-6.038L70.817,147.041z M149.716,101.805
		l5.283,3.021l5.285-3.021v-6.038L155,92.747l-5.283,3.02V101.805z M155.716,110.805l5.283,3.021l5.285-3.021v-6.038l-5.285-3.02
		l-5.283,3.02V110.805z M55,138.346l-5.285,3.02v0.752c1.309,1.441,2.507,2.982,3.446,4.777c0.247,0.472,0.283,0.927,0.192,1.34
		c0.334,0.601,0.745,1.146,1.2,1.659c0.131,0.094,0.253,0.194,0.39,0.284c0.077,0.05,0.136,0.107,0.202,0.162l5.138-2.936v-6.039
		L55,138.346z M163.687,137.956c1.871-2.366,3.574-4.83,4.975-7.464l-2.977-1.701l-5.285,3.02v6.038l1.815,1.037
		C162.591,138.272,163.132,137.997,163.687,137.956z M160.802,141.118c0.426-0.652,0.843-1.311,1.25-1.975l-2.367-1.353l-5.285,3.02
		v6.038l0.821,0.47c0.684-0.696,1.364-1.396,2.04-2.099c0.021-0.415,0.171-0.84,0.51-1.229
		C158.691,142.935,159.722,141.997,160.802,141.118z"/>
</g>
<g id="Layer_2_2_">
	<g>
		<path fill="none" stroke="#5A5A66" stroke-width="3" stroke-miterlimit="10" d="M35.9,92.13l26-7.72c0.53-0.16,1.4-0.18,1.93-0.06
			c0,0,36.77,8.439,80.58-0.221l27.35,7.73c0.531,0.149,1.011,0.72,1.061,1.27c0,0,3.27,31.67-8.189,43.67
			c0,0-7.42,4.67-10.791,13.33l-18.159,9.53c-0.49,0.26-1.19,0.14-1.57-0.27l-10.771-11.54c-0.379-0.4-1.129-0.73-1.68-0.73h-16.14
			c-0.55,0-1.45,0-2,0H87.41c-0.55,0-1.31,0.33-1.68,0.73L74.96,159.4c-0.38,0.399-1.08,0.52-1.57,0.27l-18.16-9.529
			c-3.37-8.671-10.79-13.33-10.79-13.33c-11.46-12-8.09-44.67-8.09-44.67"/>
	</g>
</g>
</svg>
